<mxfile host="Electron" modified="2022-02-28T15:19:27.583Z" agent="5.0 (X11; Linux x86_64) AppleWebKit/537.36 (KHTML, like Gecko) draw.io/16.5.1 Chrome/96.0.4664.110 Electron/16.0.7 Safari/537.36" etag="hPiGxoZ8vxMIc0b5qRt6" compressed="false" version="16.5.1" type="device">
  <diagram id="mwoZFWHElbyQGc58FeKA" name="Seite-1">
    <mxGraphModel dx="2015" dy="1233" grid="1" gridSize="10" guides="1" tooltips="1" connect="1" arrows="1" fold="1" page="1" pageScale="1" pageWidth="1200" pageHeight="1920" math="0" shadow="0">
      <root>
        <mxCell id="0" />
        <mxCell id="1" parent="0" />
        <mxCell id="fAniJ6srrR9OPO0-OqqV-7" style="edgeStyle=none;rounded=0;orthogonalLoop=1;jettySize=auto;html=1;exitX=1;exitY=0.5;exitDx=0;exitDy=0;entryX=0;entryY=0.5;entryDx=0;entryDy=0;" parent="1" source="fAniJ6srrR9OPO0-OqqV-1" target="fAniJ6srrR9OPO0-OqqV-2" edge="1">
          <mxGeometry relative="1" as="geometry" />
        </mxCell>
        <mxCell id="fAniJ6srrR9OPO0-OqqV-1" value="Sequence Splitter" style="rounded=0;whiteSpace=wrap;html=1;" parent="1" vertex="1">
          <mxGeometry x="60" y="70" width="120" height="60" as="geometry" />
        </mxCell>
        <mxCell id="fAniJ6srrR9OPO0-OqqV-9" style="edgeStyle=none;rounded=0;orthogonalLoop=1;jettySize=auto;html=1;exitX=0.5;exitY=1;exitDx=0;exitDy=0;" parent="1" source="fAniJ6srrR9OPO0-OqqV-2" target="fAniJ6srrR9OPO0-OqqV-3" edge="1">
          <mxGeometry relative="1" as="geometry" />
        </mxCell>
        <mxCell id="fAniJ6srrR9OPO0-OqqV-2" value="PreCheck" style="rounded=0;whiteSpace=wrap;html=1;" parent="1" vertex="1">
          <mxGeometry x="340" y="70" width="120" height="60" as="geometry" />
        </mxCell>
        <mxCell id="fAniJ6srrR9OPO0-OqqV-10" style="edgeStyle=none;rounded=0;orthogonalLoop=1;jettySize=auto;html=1;exitX=0.5;exitY=1;exitDx=0;exitDy=0;entryX=0.5;entryY=0;entryDx=0;entryDy=0;" parent="1" source="fAniJ6srrR9OPO0-OqqV-3" target="fAniJ6srrR9OPO0-OqqV-4" edge="1">
          <mxGeometry relative="1" as="geometry" />
        </mxCell>
        <mxCell id="fAniJ6srrR9OPO0-OqqV-3" value="Yolo" style="rounded=0;whiteSpace=wrap;html=1;" parent="1" vertex="1">
          <mxGeometry x="340" y="190" width="120" height="60" as="geometry" />
        </mxCell>
        <mxCell id="fAniJ6srrR9OPO0-OqqV-11" style="edgeStyle=none;rounded=0;orthogonalLoop=1;jettySize=auto;html=1;exitX=0.5;exitY=1;exitDx=0;exitDy=0;entryX=0.5;entryY=0;entryDx=0;entryDy=0;" parent="1" source="fAniJ6srrR9OPO0-OqqV-4" target="fAniJ6srrR9OPO0-OqqV-5" edge="1">
          <mxGeometry relative="1" as="geometry" />
        </mxCell>
        <mxCell id="fAniJ6srrR9OPO0-OqqV-4" value="Tracking" style="rounded=0;whiteSpace=wrap;html=1;" parent="1" vertex="1">
          <mxGeometry x="340" y="300" width="120" height="60" as="geometry" />
        </mxCell>
        <mxCell id="fAniJ6srrR9OPO0-OqqV-5" value="Create FlightData" style="rounded=0;whiteSpace=wrap;html=1;" parent="1" vertex="1">
          <mxGeometry x="340" y="410" width="120" height="60" as="geometry" />
        </mxCell>
        <mxCell id="fAniJ6srrR9OPO0-OqqV-8" style="edgeStyle=none;rounded=0;orthogonalLoop=1;jettySize=auto;html=1;exitX=1;exitY=0.5;exitDx=0;exitDy=0;entryX=0.5;entryY=0;entryDx=0;entryDy=0;" parent="1" source="fAniJ6srrR9OPO0-OqqV-2" target="fAniJ6srrR9OPO0-OqqV-2" edge="1">
          <mxGeometry relative="1" as="geometry">
            <Array as="points">
              <mxPoint x="480" y="100" />
              <mxPoint x="480" y="50" />
              <mxPoint x="400" y="50" />
            </Array>
          </mxGeometry>
        </mxCell>
        <mxCell id="fAniJ6srrR9OPO0-OqqV-13" value="merge sequences with motion" style="text;html=1;strokeColor=none;fillColor=none;align=center;verticalAlign=middle;whiteSpace=wrap;rounded=0;" parent="1" vertex="1">
          <mxGeometry x="490" y="60" width="136" height="30" as="geometry" />
        </mxCell>
        <mxCell id="fAniJ6srrR9OPO0-OqqV-14" value="" style="rounded=0;whiteSpace=wrap;html=1;" parent="1" vertex="1">
          <mxGeometry x="350" y="510" width="120" height="60" as="geometry" />
        </mxCell>
        <mxCell id="-fBphjwXjosBGBWuIPnj-1" value="fids client" style="rounded=0;whiteSpace=wrap;html=1;" parent="1" vertex="1">
          <mxGeometry x="30" y="730" width="120" height="60" as="geometry" />
        </mxCell>
        <mxCell id="-fBphjwXjosBGBWuIPnj-2" value="main_server" style="rounded=0;whiteSpace=wrap;html=1;" parent="1" vertex="1">
          <mxGeometry x="310" y="730" width="120" height="60" as="geometry" />
        </mxCell>
        <mxCell id="-fBphjwXjosBGBWuIPnj-3" value="" style="endArrow=classic;html=1;rounded=0;exitX=1;exitY=0.5;exitDx=0;exitDy=0;" parent="1" source="-fBphjwXjosBGBWuIPnj-1" target="-fBphjwXjosBGBWuIPnj-2" edge="1">
          <mxGeometry width="50" height="50" relative="1" as="geometry">
            <mxPoint x="460" y="690" as="sourcePoint" />
            <mxPoint x="510" y="640" as="targetPoint" />
          </mxGeometry>
        </mxCell>
        <mxCell id="-fBphjwXjosBGBWuIPnj-4" value="processing_clients" style="rounded=0;whiteSpace=wrap;html=1;" parent="1" vertex="1">
          <mxGeometry x="990" y="740" width="160" height="40" as="geometry" />
        </mxCell>
        <mxCell id="-fBphjwXjosBGBWuIPnj-5" value="client1" style="rounded=0;whiteSpace=wrap;html=1;" parent="1" vertex="1">
          <mxGeometry x="990" y="780" width="100" height="30" as="geometry" />
        </mxCell>
        <mxCell id="-fBphjwXjosBGBWuIPnj-6" value="client2" style="rounded=0;whiteSpace=wrap;html=1;" parent="1" vertex="1">
          <mxGeometry x="990" y="810" width="100" height="30" as="geometry" />
        </mxCell>
        <mxCell id="-fBphjwXjosBGBWuIPnj-7" value="" style="endArrow=classic;html=1;rounded=0;entryX=0;entryY=0.5;entryDx=0;entryDy=0;exitX=1;exitY=0.5;exitDx=0;exitDy=0;" parent="1" source="-fBphjwXjosBGBWuIPnj-2" target="-fBphjwXjosBGBWuIPnj-4" edge="1">
          <mxGeometry width="50" height="50" relative="1" as="geometry">
            <mxPoint x="460" y="690" as="sourcePoint" />
            <mxPoint x="510" y="640" as="targetPoint" />
          </mxGeometry>
        </mxCell>
        <mxCell id="-fBphjwXjosBGBWuIPnj-9" value="&lt;h1&gt;protocol&lt;/h1&gt;&lt;p&gt;&lt;span style=&quot;text-align: center&quot;&gt;imagezmq&lt;/span&gt;&lt;/p&gt;&lt;p&gt;&lt;span style=&quot;text-align: center&quot;&gt;- only images&lt;/span&gt;&lt;/p&gt;&lt;p&gt;&lt;span style=&quot;text-align: center&quot;&gt;http&lt;/span&gt;&lt;br&gt;&lt;/p&gt;&lt;p&gt;&lt;span style=&quot;text-align: center&quot;&gt;+ useful for web&lt;/span&gt;&lt;/p&gt;&lt;p&gt;&lt;span style=&quot;text-align: center&quot;&gt;+ images and sequences&lt;/span&gt;&lt;/p&gt;" style="text;html=1;strokeColor=none;fillColor=none;spacing=5;spacingTop=-20;whiteSpace=wrap;overflow=hidden;rounded=0;" parent="1" vertex="1">
          <mxGeometry x="640" y="770" width="190" height="178" as="geometry" />
        </mxCell>
        <mxCell id="-fBphjwXjosBGBWuIPnj-10" value="&lt;h1&gt;type&lt;/h1&gt;&lt;p&gt;&lt;span style=&quot;text-align: center&quot;&gt;single image&lt;/span&gt;&lt;br&gt;&lt;/p&gt;&lt;p&gt;&lt;span style=&quot;text-align: center&quot;&gt;&amp;nbsp;- more bandwidth (send2 images for single image opt flow processing)&lt;/span&gt;&lt;/p&gt;" style="text;html=1;strokeColor=none;fillColor=none;spacing=5;spacingTop=-20;whiteSpace=wrap;overflow=hidden;rounded=0;" parent="1" vertex="1">
          <mxGeometry x="640" y="610" width="190" height="120" as="geometry" />
        </mxCell>
        <mxCell id="J6f8C0cy1MSMZnDVH4ZW-2" value="&lt;pre style=&quot;background-color: #2b2b2b ; color: #a9b7c6 ; font-family: &amp;#34;jetbrains mono&amp;#34; , monospace ; font-size: 9.8pt&quot;&gt;&lt;span style=&quot;color: #ffc66d&quot;&gt;sparse_lk_cpu_worker&lt;/span&gt;&lt;/pre&gt;" style="rounded=0;whiteSpace=wrap;html=1;" vertex="1" parent="1">
          <mxGeometry x="370" y="990" width="230" height="80" as="geometry" />
        </mxCell>
        <mxCell id="J6f8C0cy1MSMZnDVH4ZW-3" value="&lt;pre style=&quot;background-color: #2b2b2b ; color: #a9b7c6 ; font-family: &amp;#34;jetbrains mono&amp;#34; , monospace ; font-size: 9.8pt&quot;&gt;LucasKanadeCPU&lt;/pre&gt;" style="rounded=0;whiteSpace=wrap;html=1;" vertex="1" parent="1">
          <mxGeometry x="380" y="1100" width="200" height="70" as="geometry" />
        </mxCell>
        <mxCell id="J6f8C0cy1MSMZnDVH4ZW-8" value="Main Thread" style="text;html=1;strokeColor=none;fillColor=none;align=center;verticalAlign=middle;whiteSpace=wrap;rounded=0;" vertex="1" parent="1">
          <mxGeometry x="80" y="960" width="160" height="20" as="geometry" />
        </mxCell>
        <mxCell id="J6f8C0cy1MSMZnDVH4ZW-9" value="CPU Processing Threads" style="text;html=1;strokeColor=none;fillColor=none;align=center;verticalAlign=middle;whiteSpace=wrap;rounded=0;" vertex="1" parent="1">
          <mxGeometry x="390" y="960" width="160" height="20" as="geometry" />
        </mxCell>
        <mxCell id="J6f8C0cy1MSMZnDVH4ZW-10" value="" style="endArrow=none;dashed=1;html=1;dashPattern=1 3;strokeWidth=2;rounded=0;" edge="1" parent="1">
          <mxGeometry width="50" height="50" relative="1" as="geometry">
            <mxPoint x="320" y="1630" as="sourcePoint" />
            <mxPoint x="320" y="960" as="targetPoint" />
          </mxGeometry>
        </mxCell>
        <mxCell id="J6f8C0cy1MSMZnDVH4ZW-11" value="" style="endArrow=none;dashed=1;html=1;dashPattern=1 3;strokeWidth=2;rounded=0;" edge="1" parent="1">
          <mxGeometry width="50" height="50" relative="1" as="geometry">
            <mxPoint x="620" y="1630" as="sourcePoint" />
            <mxPoint x="620" y="960" as="targetPoint" />
          </mxGeometry>
        </mxCell>
        <mxCell id="J6f8C0cy1MSMZnDVH4ZW-12" value="" style="endArrow=none;dashed=1;html=1;dashPattern=1 3;strokeWidth=2;rounded=0;" edge="1" parent="1">
          <mxGeometry width="50" height="50" relative="1" as="geometry">
            <mxPoint x="1140" y="980" as="sourcePoint" />
            <mxPoint x="30" y="980" as="targetPoint" />
          </mxGeometry>
        </mxCell>
        <mxCell id="J6f8C0cy1MSMZnDVH4ZW-13" value="" style="endArrow=none;dashed=1;html=1;dashPattern=1 3;strokeWidth=2;rounded=0;" edge="1" parent="1">
          <mxGeometry width="50" height="50" relative="1" as="geometry">
            <mxPoint x="230" y="1630" as="sourcePoint" />
            <mxPoint x="230" y="960" as="targetPoint" />
          </mxGeometry>
        </mxCell>
        <mxCell id="J6f8C0cy1MSMZnDVH4ZW-14" value="" style="endArrow=classic;startArrow=classic;html=1;rounded=0;" edge="1" parent="1" source="J6f8C0cy1MSMZnDVH4ZW-3">
          <mxGeometry width="50" height="50" relative="1" as="geometry">
            <mxPoint x="430" y="1120" as="sourcePoint" />
            <mxPoint x="480" y="1070" as="targetPoint" />
          </mxGeometry>
        </mxCell>
        <mxCell id="J6f8C0cy1MSMZnDVH4ZW-15" value="" style="endArrow=classic;html=1;rounded=0;entryX=0;entryY=0.5;entryDx=0;entryDy=0;" edge="1" parent="1" target="J6f8C0cy1MSMZnDVH4ZW-2">
          <mxGeometry width="50" height="50" relative="1" as="geometry">
            <mxPoint x="250" y="1030" as="sourcePoint" />
            <mxPoint x="310" y="1080" as="targetPoint" />
          </mxGeometry>
        </mxCell>
        <mxCell id="J6f8C0cy1MSMZnDVH4ZW-16" value="" style="endArrow=classic;html=1;rounded=0;exitX=0;exitY=0.75;exitDx=0;exitDy=0;" edge="1" parent="1" source="J6f8C0cy1MSMZnDVH4ZW-2">
          <mxGeometry width="50" height="50" relative="1" as="geometry">
            <mxPoint x="260" y="1130" as="sourcePoint" />
            <mxPoint x="300" y="1050" as="targetPoint" />
            <Array as="points">
              <mxPoint x="340" y="1050" />
            </Array>
          </mxGeometry>
        </mxCell>
        <mxCell id="J6f8C0cy1MSMZnDVH4ZW-17" value="" style="endArrow=none;dashed=1;html=1;dashPattern=1 3;strokeWidth=2;rounded=0;" edge="1" parent="1">
          <mxGeometry width="50" height="50" relative="1" as="geometry">
            <mxPoint x="280" y="1630" as="sourcePoint" />
            <mxPoint x="280" y="960" as="targetPoint" />
          </mxGeometry>
        </mxCell>
        <mxCell id="J6f8C0cy1MSMZnDVH4ZW-18" value="" style="endArrow=classic;html=1;rounded=0;" edge="1" parent="1">
          <mxGeometry width="50" height="50" relative="1" as="geometry">
            <mxPoint x="170" y="1005" as="sourcePoint" />
            <mxPoint x="260" y="1005" as="targetPoint" />
          </mxGeometry>
        </mxCell>
        <mxCell id="J6f8C0cy1MSMZnDVH4ZW-19" value="&lt;pre style=&quot;background-color: #2b2b2b ; color: #a9b7c6 ; font-family: &amp;#34;jetbrains mono&amp;#34; , monospace ; font-size: 9.8pt&quot;&gt;&lt;span style=&quot;color: #ffc66d&quot;&gt;...&lt;/span&gt;&lt;/pre&gt;" style="rounded=0;whiteSpace=wrap;html=1;" vertex="1" parent="1">
          <mxGeometry x="650" y="1190" width="230" height="80" as="geometry" />
        </mxCell>
        <mxCell id="J6f8C0cy1MSMZnDVH4ZW-20" value="&lt;pre style=&quot;background-color: #2b2b2b ; color: #a9b7c6 ; font-family: &amp;#34;jetbrains mono&amp;#34; , monospace ; font-size: 9.8pt&quot;&gt;...&lt;/pre&gt;" style="rounded=0;whiteSpace=wrap;html=1;" vertex="1" parent="1">
          <mxGeometry x="660" y="1300" width="200" height="70" as="geometry" />
        </mxCell>
        <mxCell id="J6f8C0cy1MSMZnDVH4ZW-21" value="" style="endArrow=classic;html=1;rounded=0;entryX=0;entryY=0.5;entryDx=0;entryDy=0;" edge="1" parent="1" target="J6f8C0cy1MSMZnDVH4ZW-19">
          <mxGeometry width="50" height="50" relative="1" as="geometry">
            <mxPoint x="260" y="1230" as="sourcePoint" />
            <mxPoint x="380" y="1040" as="targetPoint" />
          </mxGeometry>
        </mxCell>
        <mxCell id="J6f8C0cy1MSMZnDVH4ZW-22" value="" style="endArrow=classic;html=1;rounded=0;" edge="1" parent="1">
          <mxGeometry width="50" height="50" relative="1" as="geometry">
            <mxPoint x="660" y="1340" as="sourcePoint" />
            <mxPoint x="300" y="1340" as="targetPoint" />
            <Array as="points">
              <mxPoint x="660" y="1340" />
              <mxPoint x="390" y="1340" />
            </Array>
          </mxGeometry>
        </mxCell>
        <mxCell id="J6f8C0cy1MSMZnDVH4ZW-25" value="GPU Processing Threads" style="text;html=1;strokeColor=none;fillColor=none;align=center;verticalAlign=middle;whiteSpace=wrap;rounded=0;" vertex="1" parent="1">
          <mxGeometry x="680" y="960" width="160" height="20" as="geometry" />
        </mxCell>
      </root>
    </mxGraphModel>
  </diagram>
</mxfile>
